<svg width="38" height="42" viewBox="0 0 38 42" fill="none" xmlns="http://www.w3.org/2000/svg">
<path d="M3.56208 0L3.77582 0.0209982C4.01309 0.0689043 4.23152 0.195526 4.40207 0.384013C4.57262 0.572501 4.68719 0.813918 4.73053 1.07614L4.74953 1.31237V7.11565C7.59144 3.55321 11.4421 1.16077 15.673 0.328901C19.9038 -0.502964 24.2648 0.274893 28.0441 2.53548C31.8233 4.79606 34.7975 8.40584 36.4811 12.7755C38.1647 17.1451 38.4583 22.0165 37.3138 26.5942C36.1694 31.172 33.6546 35.1858 30.18 37.9803C26.7053 40.7748 22.4762 42.185 18.1829 41.9805C13.8896 41.7761 9.78586 39.9691 6.5416 36.8547C3.29735 33.7402 1.10425 29.5022 0.320339 24.8326C0.0665393 23.1153 -0.0368512 21.3749 0.0116018 19.6356C0.0388724 19.2994 0.182295 18.9878 0.41207 18.7654C0.641845 18.5431 0.940302 18.4271 1.24542 18.4417C1.55055 18.4562 1.83887 18.6001 2.05049 18.8435C2.26211 19.0868 2.38075 19.4109 2.38175 19.7485C2.34099 21.2899 2.43164 22.8322 2.65249 24.3549C3.35266 28.5291 5.33915 32.3065 8.27429 35.0451C11.2094 37.7836 14.9121 39.3143 18.7529 39.377C22.5937 39.4397 26.3357 38.0304 29.3427 35.3888C32.3497 32.7472 34.4362 29.0362 35.2476 24.8867C36.0589 20.7372 35.545 16.4052 33.7933 12.627C32.0415 8.84886 29.16 5.85773 25.6385 4.16204C22.117 2.46636 18.1728 2.17077 14.4764 3.32552C10.78 4.48027 7.55948 7.01409 5.36226 10.4963H11.8695L12.0832 10.5199C12.357 10.5747 12.6047 10.734 12.7831 10.97C12.9614 11.206 13.0591 11.5038 13.0591 11.8113C13.0591 12.1188 12.9614 12.4165 12.7831 12.6526C12.6047 12.8886 12.357 13.0479 12.0832 13.1027L11.8695 13.1237H3.56208L3.34834 13.1027C3.11075 13.0546 2.89208 12.9276 2.7215 12.7386C2.55091 12.5496 2.43654 12.3076 2.39363 12.0449L2.37463 11.8087V1.30974L2.39363 1.07351C2.43741 0.811772 2.55217 0.570931 2.72269 0.38295C2.8932 0.194968 3.1114 0.068734 3.34834 0.0209982L3.56208 0ZM17.8115 10.4989L18.0252 10.5199C18.2625 10.5678 18.4809 10.6945 18.6515 10.8829C18.822 11.0714 18.9366 11.3128 18.9799 11.5751L18.999 11.8113V21.0057H23.7488L23.9625 21.0267C24.2349 21.083 24.4809 21.2427 24.658 21.4783C24.835 21.7139 24.9319 22.0105 24.9319 22.3168C24.9319 22.623 24.835 22.9197 24.658 23.1553C24.4809 23.3909 24.2349 23.5506 23.9625 23.6068L23.7488 23.6305H17.8115L17.5978 23.6095C17.3605 23.5616 17.1421 23.4349 16.9715 23.2464C16.801 23.058 16.6864 22.8165 16.643 22.5543L16.624 22.3181V11.8139L16.643 11.5777C16.6864 11.3155 16.801 11.0741 16.9715 10.8856C17.1421 10.6971 17.3605 10.5705 17.5978 10.5225L17.8115 10.5016V10.4989Z" fill="black"/>
</svg>
