<svg width="48" height="48" viewBox="0 0 48 48" fill="none" xmlns="http://www.w3.org/2000/svg">
<path d="M38 24L30 16M38 24L30 32M38 24H18M28 42C25.6362 42 23.2956 41.5344 21.1117 40.6298C18.9278 39.7252 16.9435 38.3994 15.2721 36.7279C13.6006 35.0565 12.2748 33.0722 11.3702 30.8883C10.4656 28.7044 10 26.3638 10 24C10 21.6362 10.4656 19.2956 11.3702 17.1117C12.2748 14.9278 13.6006 12.9435 15.2721 11.2721C16.9435 9.60062 18.9278 8.27475 21.1117 7.37017C23.2956 6.46558 25.6362 6 28 6" stroke="black" stroke-width="2" stroke-linecap="round" stroke-linejoin="round"/>
</svg>
