<svg width="60" height="60" viewBox="0 0 60 60" fill="none" xmlns="http://www.w3.org/2000/svg">
<path d="M53.0715 49.1353C56.1511 45.4331 58.293 41.0442 59.316 36.3399C60.3389 31.6357 60.2129 26.7544 58.9486 22.1091C57.6842 17.4638 55.3187 13.1911 52.0522 9.6524C48.7856 6.11374 44.7141 3.41323 40.1821 1.77933C35.6501 0.145423 30.791 -0.373811 26.0156 0.265549C21.2403 0.90491 16.6894 2.68406 12.7478 5.45248C8.80618 8.22091 5.58988 11.8972 3.37096 16.1703C1.15205 20.4434 -0.00420856 25.1876 1.15103e-05 30.0016C0.0016309 36.9999 2.4698 43.774 6.97142 49.1353L6.92853 49.1718C7.07864 49.3517 7.25019 49.506 7.40459 49.6838C7.59758 49.9045 7.80559 50.1124 8.00501 50.3266C8.60544 50.978 9.22303 51.6036 9.87063 52.1907C10.0679 52.3707 10.2716 52.5378 10.4711 52.7092C11.1573 53.3006 11.8628 53.862 12.594 54.3848C12.6884 54.449 12.7741 54.5326 12.8685 54.599V54.5733C17.8909 58.1047 23.8823 60 30.0236 60C36.1649 60 42.1563 58.1047 47.1787 54.5733V54.599C47.2731 54.5326 47.3567 54.449 47.4532 54.3848C48.1823 53.8598 48.8899 53.3006 49.5761 52.7092C49.7756 52.5378 49.9793 52.3686 50.1766 52.1907C50.8242 51.6015 51.4417 50.978 52.0422 50.3266C52.2416 50.1124 52.4475 49.9045 52.6426 49.6838C52.7949 49.506 52.9686 49.3517 53.1187 49.1696L53.0715 49.1353ZM30.0215 12.8606C31.93 12.8606 33.7957 13.4261 35.3826 14.4856C36.9695 15.545 38.2063 17.0509 38.9367 18.8127C39.667 20.5745 39.8581 22.5131 39.4858 24.3835C39.1134 26.2538 38.1944 27.9718 36.8449 29.3202C35.4953 30.6687 33.7759 31.587 31.904 31.959C30.0322 32.331 28.0919 32.1401 26.3287 31.4103C24.5654 30.6806 23.0583 29.4447 21.998 27.8592C20.9377 26.2736 20.3717 24.4094 20.3717 22.5024C20.3717 19.9453 21.3884 17.4928 23.1981 15.6846C25.0077 13.8764 27.4622 12.8606 30.0215 12.8606ZM12.8814 49.1353C12.9186 46.322 14.0628 43.6364 16.0665 41.6596C18.0703 39.6827 20.7724 38.5736 23.5883 38.5722H36.4546C39.2705 38.5736 41.9726 39.6827 43.9764 41.6596C45.9801 43.6364 47.1244 46.322 47.1616 49.1353C42.4586 53.3699 36.3522 55.7134 30.0215 55.7134C23.6907 55.7134 17.5843 53.3699 12.8814 49.1353Z" fill="white"/>
</svg>
